<svg width="183" height="186" viewBox="0 0 183 186" fill="none" xmlns="http://www.w3.org/2000/svg">
<path d="M182.723 92.7099C182.723 143.912 141.819 185.42 91.3616 185.42C40.904 185.42 0 143.912 0 92.7099C0 41.5076 40.904 0 91.3616 0C141.819 0 182.723 41.5076 182.723 92.7099Z" fill="black"/>
<path d="M55.7544 117.85C55.7544 117.071 63.5962 108.437 73.4003 98.4408C93.5903 77.8347 93.2025 78.8343 81.5523 77.4648C71.1897 76.2527 54.9788 68.2086 54.9788 64.281C54.9788 62.5022 62.7585 54.6234 64.5192 54.6234C65.1862 54.6234 68.1725 56.0323 71.1509 57.7561C80.4044 63.1161 93.474 63.2972 106.559 58.2441C120.722 52.7738 118.667 52.758 124.182 58.3542L129.006 63.2499C118.76 90.4597 118.605 101.44 124.802 112.435C128.634 119.22 128.688 118.638 123.856 123.643C118.357 129.342 117.154 129.216 112.733 122.526C108.483 116.103 105.69 107.532 104.969 98.6926C104.674 95.0641 104.162 91.7348 103.829 91.2861C103.472 90.7902 96.0569 97.9055 85.2366 109.129C75.3472 119.401 66.5824 127.98 65.768 128.209C64.6898 128.5 63.1308 127.343 60.0204 123.935C57.678 121.361 55.7544 118.622 55.7544 117.85Z" fill="#1A6CD8"/>
</svg>
