<svg width="183" height="186" viewBox="0 0 183 186" fill="none" xmlns="http://www.w3.org/2000/svg">
<path d="M182.723 92.7099C182.723 143.912 141.819 185.42 91.3616 185.42C40.904 185.42 0 143.912 0 92.7099C0 41.5076 40.904 0 91.3616 0C141.819 0 182.723 41.5076 182.723 92.7099Z" fill="#1A6CD8"/>
<path d="M55.7542 117.85C55.7542 117.071 63.5959 108.437 73.4001 98.4408C93.5901 77.8348 93.2022 78.8344 81.5521 77.4648C71.1895 76.2527 54.9785 68.2086 54.9785 64.2811C54.9785 62.5022 62.7582 54.6235 64.5189 54.6235C65.186 54.6235 68.1722 56.0324 71.1507 57.7561C80.4041 63.1162 93.4737 63.2972 106.559 58.2441C120.722 52.7738 118.667 52.7581 124.181 58.3543L129.006 63.25C118.76 90.4597 118.605 101.44 124.802 112.435C128.634 119.22 128.688 118.638 123.856 123.643C118.356 129.342 117.154 129.216 112.733 122.526C108.482 116.103 105.69 107.532 104.969 98.6927C104.674 95.0642 104.162 91.7348 103.829 91.2861C103.472 90.7903 96.0566 97.9056 85.2364 109.129C75.3469 119.401 66.5822 127.98 65.7677 128.209C64.6896 128.5 63.1305 127.343 60.0202 123.935C57.6778 121.361 55.7542 118.622 55.7542 117.85Z" fill="black"/>
</svg>
